HIERARCHY
ROOT SimulationBone
{
	OFFSET 0.000000 0.000000 0.000000
	CHANNELS 6 Xposition Yposition Zposition Zrotation Yrotation Xrotation 
	JOINT Hips
	{
		OFFSET 0.000000 0.000000 0.000000
		CHANNELS 6 Xposition Yposition Zposition Zrotation Yrotation Xrotation 
		JOINT RightUpLeg
		{
			OFFSET 0.103462 1.857831 10.548502
			CHANNELS 3 Zrotation Yrotation Xrotation
			JOINT RightLeg
			{
				OFFSET 43.500008 -0.000027 -0.000004
				CHANNELS 3 Zrotation Yrotation Xrotation
				JOINT RightFoot
				{
					OFFSET 42.372200 0.000011 -0.000002
					CHANNELS 3 Zrotation Yrotation Xrotation
					JOINT RightToe
					{
						OFFSET 17.299999 -0.000001 -0.000002
						CHANNELS 3 Zrotation Yrotation Xrotation
						End Site
						{
							OFFSET 0.000000 0.000000 0.000000
						}
					}
				}
			}
		}
		JOINT LeftUpLeg
		{
			OFFSET 0.103458 1.857828 -10.548501
			CHANNELS 3 Zrotation Yrotation Xrotation
			JOINT LeftLeg
			{
				OFFSET 43.500038 -0.000031 0.000011
				CHANNELS 3 Zrotation Yrotation Xrotation
				JOINT LeftFoot
				{
					OFFSET 42.372257 -0.000004 0.000010
					CHANNELS 3 Zrotation Yrotation Xrotation
					JOINT LeftToe
					{
						OFFSET 17.299994 -0.000005 0.000004
						CHANNELS 3 Zrotation Yrotation Xrotation
						End Site
						{
							OFFSET 0.000000 0.000000 0.000000
						}
					}
				}
			}
		}
		JOINT Spine
		{
			OFFSET 6.901966 -2.603733 0.000000
			CHANNELS 3 Zrotation Yrotation Xrotation
			JOINT Spine1
			{
				OFFSET 12.588101 0.000002 0.000000
				CHANNELS 3 Zrotation Yrotation Xrotation
				JOINT Spine2
				{
					OFFSET 12.343201 0.000004 -0.000002
					CHANNELS 3 Zrotation Yrotation Xrotation
					JOINT Neck
					{
						OFFSET 25.832895 -0.000004 0.000002
						CHANNELS 3 Zrotation Yrotation Xrotation
						JOINT Head
						{
							OFFSET 11.766604 0.000011 0.000001
							CHANNELS 3 Zrotation Yrotation Xrotation
							End Site
							{
								OFFSET 0.000000 0.000000 0.000000
							}
						}
					}
					JOINT RightShoulder
					{
						OFFSET 19.745903 -1.480368 6.000108
						CHANNELS 3 Zrotation Yrotation Xrotation
						JOINT RightArm
						{
							OFFSET 11.284126 -0.000007 -0.000022
							CHANNELS 3 Zrotation Yrotation Xrotation
							JOINT RightForeArm
							{
								OFFSET 33.000053 0.000001 0.000028
								CHANNELS 3 Zrotation Yrotation Xrotation
								JOINT RightHand
								{
									OFFSET 25.200005 0.000019 0.000013
									CHANNELS 3 Zrotation Yrotation Xrotation
									End Site
									{
										OFFSET 0.000000 0.000000 0.000000
									}
								}
							}
						}
					}
					JOINT LeftShoulder
					{
						OFFSET 19.746094 -1.480373 -6.000072
						CHANNELS 3 Zrotation Yrotation Xrotation
						JOINT LeftArm
						{
							OFFSET 11.284138 -0.000017 -0.000010
							CHANNELS 3 Zrotation Yrotation Xrotation
							JOINT LeftForeArm
							{
								OFFSET 33.000092 0.000013 0.000009
								CHANNELS 3 Zrotation Yrotation Xrotation
								JOINT LeftHand
								{
									OFFSET 25.199776 0.000139 0.000415
									CHANNELS 3 Zrotation Yrotation Xrotation
									End Site
									{
										OFFSET 0.000000 0.000000 0.000000
									}
								}
							}
						}
					}
				}
			}
		}
	}
}
MOTION
Frames: 10
Frame Time: 0.033333
-13.848824 0.000000 -320.333166 180.000000 80.706810 180.000000 -4.215869 84.451721 -0.958077 91.513676 3.473958 174.207139 170.579808 -0.913502 175.623998 -83.652407 2.237332 -3.387252 73.150233 -0.225866 -8.028421 21.454555 0.003107 0.000020 147.325705 -10.543002 -174.301728 -36.352838 -0.997097 4.222569 70.227315 -5.342816 -6.816893 21.454551 -0.003087 0.000000 12.748167 1.623153 -2.889014 15.403381 3.616839 -5.538209 15.086228 3.583235 -5.559888 -8.184183 17.422657 9.205475 -30.713551 -17.177709 22.793077 157.705325 -85.051851 20.845860 -10.118913 38.476027 22.214615 -92.573386 -2.402724 2.629905 -5.447197 -6.089889 25.864325 -155.824906 81.862570 26.073708 39.536396 -32.696887 -83.577671 -76.711275 6.136063 -2.156462 19.388390 -36.950900 -37.578116 
-14.993760 0.000000 -324.568901 180.000000 82.562517 180.000000 -2.359526 82.575661 0.258558 95.883641 5.512600 176.349404 172.339101 -5.117009 175.997309 -92.275630 3.671364 -4.559991 73.438740 1.482662 -5.270318 21.454568 0.003114 0.000013 150.151177 -12.045112 178.955177 -46.815571 5.058881 7.968921 77.745086 -7.201944 -5.593018 21.454551 -0.003091 0.000001 12.742621 1.866667 -2.010362 15.416107 3.984694 -3.755634 15.097923 3.961815 -3.779634 -9.207553 16.627354 7.907372 -32.078195 -17.821058 22.053429 158.506001 -83.486447 20.114661 -9.452260 40.648935 23.133805 -88.744259 -4.407564 2.599042 -5.816938 -7.150755 29.093638 -161.387794 79.322607 20.472391 33.797764 -33.890220 -78.575760 -73.026197 7.325188 -2.084969 20.376997 -31.427763 -43.427074 
-16.109816 0.000000 -328.732538 180.000000 84.283093 180.000000 -1.168745 82.665443 0.912392 98.293765 5.375256 -179.566666 169.730761 -4.617100 -178.837794 -97.297199 4.248087 -5.491531 74.042386 2.553198 -3.822046 21.454551 0.003118 0.000016 155.007277 -10.257007 -174.604306 -49.824632 2.954081 5.569702 83.611419 -5.202811 -6.025053 21.454550 -0.003098 -0.000000 12.509851 1.867984 -2.155692 14.944905 3.998917 -4.053785 14.626838 3.974255 -4.077853 -11.990307 16.455913 7.414841 -31.603862 -18.290417 22.036598 170.505127 -81.234670 8.077522 -8.273736 42.489009 26.339699 -82.120232 -8.389992 2.584474 -6.638161 -12.279306 30.772707 -169.142204 77.117002 12.588689 22.630117 -37.885885 -71.232623 -68.208031 9.759703 -2.057136 20.201104 -18.703127 -58.157852 
-17.195647 0.000000 -332.825922 180.000000 85.854634 180.000000 -0.607512 83.567642 1.723741 99.513834 5.274357 -175.621643 164.977646 -4.448803 -174.232484 -99.392032 4.517876 -5.736962 74.629413 2.923014 -3.156920 21.454557 0.003119 0.000012 160.274555 -10.087300 -173.225386 -48.301185 2.880819 5.668987 86.564800 -5.001621 -5.641360 21.454551 -0.003087 0.000000 12.151561 1.829977 -2.127656 14.229791 3.907902 -4.015764 13.911753 3.883452 -4.039274 -13.497250 17.310315 6.610599 -31.225832 -18.164195 21.543989 170.591939 -80.945050 7.998472 -7.621736 45.485204 30.755778 -72.411869 -12.772446 2.472801 -7.157686 -18.008385 28.248129 -173.594066 75.331891 8.034015 11.093646 -42.699436 -63.319460 -61.251969 13.306390 -2.030013 14.944633 -6.332037 -84.800582 
-18.249903 0.000000 -336.850897 180.000000 87.266664 180.000000 -0.260108 85.259933 2.174772 100.450020 5.006711 -174.652366 161.091596 -4.468596 -173.138616 -97.064296 4.362431 -6.294568 73.795775 3.374355 -3.013937 21.454548 0.003117 0.000015 166.796621 -11.100205 -176.628419 -43.294749 3.301735 6.571843 86.888687 -5.445061 -4.820922 21.454555 -0.003088 0.000000 11.802834 1.590898 -1.526046 13.556700 3.349760 -2.855947 13.238461 3.332333 -2.876133 -13.995665 16.708803 5.949619 -30.034162 -17.911483 20.359568 171.143326 -80.484606 7.453783 -6.657346 47.662354 33.523036 -62.617713 -14.487004 2.195690 -4.413897 -18.502665 22.232913 -177.425816 73.887415 4.094963 1.319165 -46.430858 -51.650874 -54.064994 17.423099 -2.048715 8.950393 -3.880200 -98.359744 
-19.271237 0.000000 -340.809306 180.000000 88.512011 180.000000 -0.035090 87.086731 2.302432 100.547036 4.197197 -175.266906 157.843664 -4.374898 -174.011596 -91.248418 3.882104 -6.733076 74.026656 3.477950 -3.884487 21.454553 0.003114 0.000018 173.110311 -11.176501 179.985839 -37.139741 2.646522 6.730961 86.122368 -5.468485 -4.238535 21.454553 -0.003078 -0.000002 11.237569 1.171363 -0.896907 12.447377 2.432463 -1.662753 12.129128 2.422246 -1.677415 -12.848125 15.022660 5.935307 -29.070641 -17.165406 19.082183 -179.630137 -79.921396 -1.895622 -4.048300 48.465827 37.097247 -54.906634 -14.450414 1.909098 -0.943324 -14.077564 16.254954 -179.289501 73.964603 2.185732 -6.579733 -49.246241 -34.146646 -53.245597 18.092411 -2.065481 5.686585 -3.167280 -92.523669 
-20.258302 0.000000 -344.702993 180.000000 89.586491 180.000000 0.136094 88.630943 2.177830 99.702799 3.144949 -176.550875 154.830266 -4.398302 -175.637372 -82.867571 2.873137 -6.742705 73.977970 3.413953 -4.342667 21.454551 0.003113 0.000016 178.178476 -9.796406 176.644142 -31.304120 2.709392 6.544581 84.907086 -5.354153 -3.987358 21.454551 -0.003088 -0.000001 10.486792 0.714258 -0.271689 10.958596 1.451059 -0.474483 10.640408 1.448034 -0.483249 -12.706986 13.023590 5.949858 -26.486893 -16.169371 17.472438 -172.814264 -78.378340 -8.808916 1.135310 46.665662 42.288505 -50.997522 -14.137077 1.755459 -0.185790 -10.413534 16.419647 179.352899 75.279128 0.818585 -14.429483 -49.343039 -22.004125 -57.573959 15.778490 -2.062140 7.036757 1.401088 -77.561784 
-21.209751 0.000000 -348.533801 0.000000 89.511001 0.000000 0.175025 89.612473 2.051482 97.845556 2.906569 -178.097748 151.791734 -5.546206 -177.560220 -72.573273 1.907838 -6.588064 73.311152 3.413906 -4.125116 21.454560 0.003104 0.000020 -178.972813 -8.227711 174.314214 -26.978820 3.592738 5.945817 83.308828 -5.046364 -4.021908 21.454553 -0.003087 0.000002 9.583736 0.444533 0.383344 9.157890 0.857375 0.800674 8.839792 0.862056 0.795474 -13.692332 11.871621 5.891579 -23.951534 -15.660229 16.458656 -164.281595 -76.870992 -17.508495 6.300875 43.464308 48.729182 -50.506022 -14.471361 1.761639 -2.461514 -9.065483 21.567538 174.793789 77.579727 -3.784730 -21.573093 -47.406612 -17.838620 -62.010563 15.340424 -2.197509 4.962909 3.962361 -63.897629 
-22.124236 0.000000 -352.303575 0.000000 88.780221 0.000000 0.239736 90.155724 1.928881 96.129356 3.175401 -179.842468 150.463931 -7.487903 -179.879848 -59.753357 1.098289 -5.508974 72.484590 2.970801 -3.147678 21.454557 0.003114 0.000013 -176.728030 -6.735505 173.099178 -23.763666 4.509087 4.595254 81.757098 -4.239653 -4.139908 21.454553 -0.003097 0.000001 8.802114 0.314817 1.046246 7.596666 0.560436 2.110884 7.278784 0.573035 2.107452 -15.110545 11.570114 5.724580 -21.997871 -15.476082 15.902731 -154.174677 -75.373583 -27.855523 9.975967 39.850059 53.598578 -52.245165 -14.638320 1.830405 -3.832419 -7.869825 24.902636 161.841810 79.810897 -16.870595 -26.167020 -44.242946 -14.079726 -67.452325 14.568727 -2.357994 0.819666 4.149444 -52.995738 
-23.000410 0.000000 -356.014158 0.000000 88.218233 0.000000 0.516895 90.307381 1.733727 95.206387 3.461389 178.338125 151.671495 -9.322612 177.305878 -44.543721 0.566199 -3.370069 71.769722 1.324556 -3.544139 21.454558 0.003106 0.000017 -174.007279 -5.113305 172.144441 -21.261505 5.375026 3.220168 80.776549 -3.344086 -4.069528 21.454548 -0.003093 0.000001 8.266357 0.245971 1.698803 6.525828 0.396125 3.408736 6.208332 0.416541 3.406289 -16.787425 10.314067 5.591585 -19.570188 -13.874650 14.450483 -144.093673 -74.140795 -38.201511 12.244081 36.814583 57.007645 -54.578266 -14.457779 1.898136 -3.952176 -7.138098 26.247637 146.253693 81.531463 -32.547197 -29.996538 -39.925297 -10.041441 -73.043129 13.412225 -2.507529 -2.240982 4.141029 -45.932588 
